<?xml version="1.0" standalone="no"?>
<!DOCTYPE svg PUBLIC "-//W3C//DTD SVG 20010904//EN"
 "http://www.w3.org/TR/2001/REC-SVG-20010904/DTD/svg10.dtd">
<svg version="1.0" xmlns="http://www.w3.org/2000/svg"
 width="553.000000pt" height="190.000000pt" viewBox="0 0 553.000000 190.000000"
 preserveAspectRatio="xMidYMid meet">
<metadata>
Created by potrace 1.16, written by Peter Selinger 2001-2019
</metadata>
<g transform="translate(0.000000,190.000000) scale(0.100000,-0.100000)"
fill="#000000" stroke="none">
<path d="M0 950 l0 -950 2765 0 2765 0 0 950 0 950 -2312 0 c-2298 0 -2313 0
-2281 -20 18 -10 39 -33 48 -49 18 -35 19 -127 2 -157 -23 -42 -122 -154 -135
-154 -7 0 -31 15 -53 32 l-40 33 -17 -22 c-9 -11 -66 -80 -127 -153 -60 -72
-114 -140 -119 -150 -6 -13 2 -37 29 -88 108 -207 284 -328 493 -340 l92 -5 0
-88 c0 -88 0 -89 -27 -95 -37 -10 -187 12 -252 36 -184 67 -326 221 -392 425
l-22 69 -29 -34 c-144 -171 -179 -220 -177 -247 4 -39 -10 -100 -27 -113 -20
-18 -43 -6 -114 59 -58 52 -63 60 -51 75 22 26 66 46 101 46 34 0 31 -3 186
184 78 95 99 128 104 159 5 43 34 72 49 49 5 -9 43 30 124 126 64 77 117 144
117 149 0 5 -18 24 -40 42 -22 17 -40 35 -40 40 0 16 145 163 174 176 27 12
-23 13 -381 14 l-413 1 0 -950z m1562 518 c55 -16 81 -52 74 -100 -3 -20 -1
-49 4 -63 18 -49 210 -297 225 -292 18 8 45 -24 45 -54 0 -28 6 -38 104 -168
47 -63 81 -98 103 -108 52 -21 73 -48 73 -92 0 -75 -67 -118 -135 -85 -35 16
-55 54 -55 103 0 25 -91 161 -108 161 -5 0 -16 -24 -25 -54 -24 -75 -102 -190
-174 -256 -113 -105 -251 -160 -400 -160 l-83 0 0 90 0 90 60 0 c86 0 154 17
245 60 66 32 95 54 160 122 81 85 152 198 139 221 -18 29 -238 323 -248 330
-6 4 -30 12 -53 18 -24 6 -54 23 -68 37 -25 24 -53 97 -43 108 3 3 23 -6 43
-21 47 -31 49 -31 74 1 29 36 27 47 -14 78 -55 42 -26 59 57 34z m2808 -184
c19 -11 42 -33 50 -50 19 -38 20 -187 1 -231 -25 -61 -46 -67 -251 -74 -102
-3 -186 -7 -187 -8 -2 0 -3 -28 -3 -61 l0 -61 -72 3 -73 3 -3 244 c-2 189 1
247 10 253 7 5 121 8 253 6 221 -3 243 -5 275 -24z m-1437 -16 c-10 -11 -71
-65 -136 -121 -83 -71 -114 -103 -107 -112 5 -6 73 -63 150 -125 82 -68 135
-117 127 -120 -6 -3 -59 -3 -117 0 l-105 5 -108 93 c-96 83 -111 92 -147 92
l-40 0 0 -89 c0 -60 -4 -92 -12 -97 -15 -9 -122 -9 -137 1 -13 8 -15 463 -2
483 5 9 28 12 77 10 l69 -3 3 -87 3 -88 41 0 c37 0 48 7 138 90 l97 89 99 3
c122 4 131 2 107 -24z m612 18 c48 -20 76 -69 73 -126 l-3 -45 -54 -3 c-73 -4
-101 4 -101 28 0 28 -35 35 -166 35 -151 0 -154 -3 -154 -135 0 -78 3 -100 16
-111 19 -15 210 -26 269 -15 27 5 36 13 41 34 9 36 20 42 84 42 78 0 84 -7 76
-74 -8 -72 -21 -92 -71 -112 -87 -35 -460 -27 -518 11 -39 25 -50 62 -55 190
-7 199 16 263 103 284 69 16 420 13 460 -3z m-2537 -40 c15 -8 38 -29 52 -48
35 -47 36 -148 2 -196 -31 -43 -77 -65 -132 -66 -92 0 -155 67 -155 164 1 99
59 160 153 160 29 0 65 -6 80 -14z m3823 -86 c51 -14 69 -39 76 -104 l6 -57
-64 3 c-58 3 -64 5 -67 26 -7 47 -106 54 -137 9 -11 -16 -15 -49 -15 -130 l0
-108 -67 3 -68 3 0 175 0 175 63 3 c57 3 62 1 62 -18 0 -24 13 -26 30 -5 26
31 115 43 181 25z m567 -14 c48 -25 62 -61 62 -166 0 -166 -24 -184 -250 -184
-229 0 -250 16 -250 186 0 132 16 159 110 179 63 14 292 4 328 -15z m-3978
-248 c53 -37 73 -71 78 -135 3 -48 0 -64 -20 -92 -39 -58 -72 -76 -138 -76
-44 0 -66 5 -87 21 -129 96 -70 304 87 304 32 0 57 -7 80 -22z m-909 -113 c80
-87 214 -174 321 -209 72 -23 100 -28 188 -35 l85 -6 3 -160 c2 -112 6 -161
15 -167 23 -15 210 -8 297 11 171 38 279 96 387 207 33 35 64 64 67 64 3 0 6
-62 6 -137 0 -159 -12 -196 -70 -226 -33 -16 -79 -17 -655 -15 -573 3 -622 4
-646 21 -47 32 -49 48 -49 382 0 173 2 315 5 315 2 0 23 -20 46 -45z m2526
-121 c25 -34 16 -54 -21 -54 -19 0 -38 5 -41 10 -8 13 -122 13 -130 1 -9 -16
14 -23 100 -30 97 -7 115 -19 115 -72 0 -67 -22 -79 -143 -79 -114 0 -147 12
-147 56 0 21 5 24 35 24 19 0 35 -4 35 -9 0 -11 66 -20 108 -14 17 3 32 11 32
18 0 17 -33 25 -109 25 -78 0 -101 16 -101 70 0 69 25 80 169 75 68 -2 87 -7
98 -21z m388 6 c8 -7 15 -24 15 -37 0 -24 -2 -25 -37 -18 -82 14 -145 17 -156
6 -18 -18 -3 -23 85 -28 100 -7 118 -19 118 -79 0 -64 -21 -74 -145 -74 -88 0
-104 3 -123 20 -12 12 -22 30 -22 40 0 16 7 20 33 20 18 0 37 -4 42 -9 21 -20
145 -18 145 3 0 17 -44 26 -126 26 -54 0 -65 3 -78 22 -34 49 -9 113 47 121
55 8 187 -1 202 -13z m-811 -99 c31 -60 56 -114 56 -120 0 -20 -69 -13 -82 9
-11 17 -24 20 -95 20 -73 0 -82 -2 -88 -20 -5 -16 -15 -20 -46 -20 -21 0 -39
3 -39 6 0 8 101 206 113 222 6 7 33 12 67 12 l57 0 57 -109z m1216 84 c0 -22
-4 -25 -37 -26 -136 -2 -148 -4 -151 -21 -3 -16 6 -18 87 -18 90 0 91 0 91
-25 0 -25 -1 -25 -90 -25 -83 0 -90 -1 -90 -20 0 -19 7 -20 96 -20 l95 0 -3
-27 -3 -28 -130 0 -130 0 -3 118 -3 117 136 0 135 0 0 -25z m279 -48 l33 -72
36 73 35 73 66 -3 66 -3 3 -95 c4 -125 0 -140 -38 -140 -35 0 -39 11 -42 114
l-3 69 -46 -89 c-38 -72 -51 -90 -72 -92 -28 -3 -46 18 -87 103 -42 87 -45 87
-50 -11 l-5 -89 -30 0 -30 0 -3 118 -3 117 68 0 68 -1 34 -72z m638 41 c10
-19 10 -33 3 -54 -8 -19 -8 -30 0 -38 5 -5 10 -29 10 -52 0 -57 -23 -65 -175
-62 l-120 3 -3 118 -3 118 138 -3 138 -3 12 -27z m205 -55 l3 -88 83 -3 82 -3
0 -29 0 -30 -119 0 c-99 0 -120 3 -125 16 -8 21 -8 209 1 217 3 4 21 7 39 7
l33 0 3 -87z m324 47 c16 -22 34 -40 39 -40 6 0 26 18 45 41 33 37 39 40 80
37 l44 -3 -61 -71 c-52 -61 -62 -78 -65 -115 -3 -43 -4 -44 -38 -44 -34 0 -35
1 -38 44 -3 38 -12 54 -63 110 -32 36 -59 69 -59 73 0 5 19 8 43 8 39 0 46 -4
73 -40z m-2814 -317 c22 -20 23 -46 3 -63 -11 -9 -12 -17 -4 -31 13 -26 -5
-25 -38 1 -14 11 -34 20 -44 20 -38 0 -18 19 24 22 34 2 42 7 42 23 0 17 -7
20 -45 20 l-45 0 -3 -45 c-5 -74 -22 -72 -22 3 l0 67 57 0 c38 0 62 -5 75 -17z
m208 8 c0 -6 -19 -11 -42 -13 -43 -3 -43 -3 -46 -45 l-3 -43 40 0 c23 0 41 -4
41 -10 0 -5 -22 -10 -50 -10 l-50 0 0 65 0 65 55 0 c30 0 55 -4 55 -9z m92
-43 l3 -53 43 -3 c61 -5 52 -22 -13 -22 l-55 0 0 65 c0 78 18 88 22 13z m286
-4 c18 -31 32 -60 32 -65 0 -15 -15 -10 -33 11 -10 12 -29 20 -47 20 -19 0
-33 -7 -40 -20 -6 -11 -18 -20 -26 -20 -24 0 52 129 76 130 3 0 20 -25 38 -56z
m153 24 l23 -31 27 32 c34 41 60 38 28 -3 -21 -27 -22 -29 -5 -58 24 -40 10
-50 -20 -14 l-25 29 -30 -28 c-35 -34 -50 -27 -20 11 21 26 21 26 1 51 -11 14
-20 30 -20 34 0 19 20 8 41 -23z m380 -8 c13 -22 26 -40 31 -40 12 0 10 48 -2
55 -14 9 -12 25 3 25 6 0 22 -18 35 -40 12 -22 26 -40 30 -40 4 0 17 18 30 40
19 34 42 53 42 35 0 -10 -31 -68 -52 -98 -19 -26 -22 -27 -38 -12 -15 14 -18
14 -30 0 -7 -8 -16 -15 -20 -15 -9 0 -70 107 -70 122 0 20 21 4 41 -32z m349
30 c0 -5 -18 -10 -40 -10 -33 0 -40 -3 -40 -20 0 -17 7 -20 41 -20 26 0 38 -4
33 -11 -3 -6 -22 -9 -40 -7 -28 3 -34 1 -34 -14 0 -14 8 -18 40 -18 22 0 40
-5 40 -11 0 -6 -21 -9 -52 -7 l-53 3 -3 49 c-2 27 -1 55 2 62 6 16 106 20 106
4z m280 0 c0 -5 -16 -10 -36 -10 -48 0 -74 -16 -74 -45 0 -29 30 -48 67 -43
39 4 42 28 4 28 -17 0 -31 5 -31 10 0 6 18 10 40 10 39 0 40 -1 40 -35 l0 -35
-51 0 c-72 0 -89 12 -89 62 0 27 6 45 18 54 20 16 112 19 112 4z m228 -6 c28
-19 29 -67 2 -94 -24 -24 -96 -27 -125 -6 -26 19 -26 81 1 101 25 19 94 19
122 -1z m212 6 c0 -5 -11 -10 -25 -10 -24 0 -25 -3 -25 -55 0 -70 -18 -72 -22
-2 -3 49 -5 52 -31 55 -15 2 -25 8 -22 13 8 12 125 12 125 -1z m250 0 c0 -5
-11 -10 -25 -10 -19 0 -25 -6 -30 -33 -4 -18 -6 -37 -5 -42 5 -21 -1 -36 -10
-30 -5 3 -10 28 -10 56 0 46 -2 49 -26 49 -14 0 -23 4 -19 10 3 6 33 10 66 10
33 0 59 -4 59 -10z m90 -55 c0 -30 -4 -57 -10 -60 -6 -4 -10 18 -10 60 0 42 4
64 10 60 6 -3 10 -30 10 -60z m110 0 c0 -37 -4 -65 -10 -65 -5 0 -10 11 -10
25 0 23 -4 25 -40 25 -22 0 -40 5 -40 10 0 6 11 10 24 10 40 0 56 11 56 36 0
13 5 24 10 24 6 0 10 -28 10 -65z m100 0 c0 -37 -4 -65 -10 -65 -6 0 -10 28
-10 65 0 37 4 65 10 65 6 0 10 -28 10 -65z m220 56 c0 -6 -23 -11 -50 -13 -54
-3 -69 -21 -23 -26 64 -6 73 -11 73 -41 0 -17 -6 -31 -16 -35 -26 -10 -124 -7
-124 4 0 6 24 10 54 10 55 0 81 15 55 31 -8 5 -28 9 -46 9 -17 0 -38 3 -47 6
-19 7 -21 35 -4 52 14 14 128 16 128 3z m-2760 -61 c0 -5 -13 -10 -29 -10 -17
0 -33 5 -36 10 -4 6 8 10 29 10 20 0 36 -4 36 -10z m727 -62 c-3 -8 -6 -5 -6
6 -1 11 2 17 5 13 3 -3 4 -12 1 -19z"/>
<path d="M2064 650 c-12 -5 -27 -23 -33 -41 -14 -40 -15 -34 13 -64 42 -45
106 -34 127 22 9 23 -1 51 -28 80 -13 15 -48 16 -79 3z"/>
<path d="M3984 1166 c-3 -7 -4 -35 -2 -62 l3 -49 138 0 c112 0 140 3 147 15
14 21 12 84 -2 98 -18 18 -277 17 -284 -2z"/>
<path d="M5134 1060 c-46 -15 -61 -96 -26 -140 16 -20 27 -22 101 -22 62 0 88
4 99 16 22 21 22 110 1 132 -20 19 -129 28 -175 14z"/>
<path d="M2467 585 c-9 -20 -17 -38 -17 -40 0 -3 20 -5 45 -5 50 0 52 3 29 48
-20 41 -36 40 -57 -3z"/>
<path d="M4558 624 c-10 -3 -18 -12 -18 -20 0 -11 15 -14 64 -14 58 0 88 11
72 27 -8 8 -97 13 -118 7z"/>
<path d="M4536 532 c-14 -23 14 -33 80 -30 56 2 69 6 72 21 3 15 -6 17 -72 17
-41 0 -77 -4 -80 -8z"/>
<path d="M2996 285 c-3 -9 0 -15 9 -15 16 0 20 16 6 24 -5 3 -11 -1 -15 -9z"/>
<path d="M4332 308 c-7 -7 -12 -21 -12 -33 0 -30 19 -45 56 -45 33 0 64 21 64
44 0 37 -80 62 -108 34z"/>
<path d="M80 910 c-13 -9 -8 -16 25 -45 22 -19 46 -35 52 -35 17 0 28 49 16
69 -12 19 -71 26 -93 11z"/>
</g>
</svg>
